# xmcd
#
# Track frame offsets:
#	150
#	15383
#	28432
#	42035
#	55966
#	69925
#
# Disc length: 1090 seconds
#
# Revision: 0
# Processed by: cddbd v1.5.2PL0 Copyright (c) Steve Scherf et al.
# Submitted via: dBpowerAMP V4.0
#
DISCID=46044006
DTITLE=Marco e Mário - Marco e Mário ao Vivo
DYEAR=2008
DGENRE=Country
TTITLE0=Flecha do culpido
TTITLE1=Marvada Pinga
TTITLE2=Uma chance a mais
TTITLE3=A mulher mais feliz
TTITLE4=Eu quero te amar
TTITLE5=Sai do meu pé
EXTD=
EXTT0=
EXTT1=
EXTT2=
EXTT3=
EXTT4=
EXTT5=
PLAYORDER=
